
<svg xmlns="http://www.w3.org/2000/svg">
  <path
    fill=""
    fill-rule="evenodd"
    d="M32.903 46.452V60H0V15.484h21.29V0h30.401L60 8.309v38.143H32.903zm0-15.484h7.742v-1.936h-7.742v1.936zm0-3.871h7.742v-1.936h-7.742v1.936zm0-7.742h1.936v1.935h-1.936v1.936h7.742V21.29h-3.871v-1.935h3.871v-1.936h-7.742v1.936zM1.936 17.419v40.646h29.032V17.419H1.936zM52.258 3.304v4.438h4.438l-4.438-4.438zm5.806 6.373h-7.741V1.935H23.226v13.549h17.419v-3.871h15.484v25.162H40.645v-3.872h-7.742v11.613h25.161V9.677zM42.581 32.903v1.936h11.612v-1.936h-1.935v-1.935h1.935v-1.936H42.581v1.936h7.742v1.935h-7.742zm11.612-5.806v-1.936H42.581v1.936h11.612zm0-3.871V21.29H42.581v1.936h11.612zm0-3.871v-1.936H42.581v1.936h11.612zm0-3.871v-1.936H42.581v1.936h11.612zM3.871 30.968h25.161v25.161H3.871V30.968zm13.548 23.226h9.678v-9.678h-9.678v9.678zm0-11.614h9.678v-9.677h-9.678v9.677zM5.807 54.194h9.677v-9.678H5.807v9.678zm0-11.614h9.677v-9.677H5.807v9.677zm5.806-1.935H9.677V38.71H7.742v-1.935h1.935v-1.936h1.936v1.936h1.935v1.935h-1.935v1.935zm1.251 12.297l-2.219-2.219-2.219 2.219-1.368-1.368 2.219-2.219-2.219-2.219 1.368-1.369 2.219 2.22 2.219-2.22 1.369 1.369-2.219 2.219 2.219 2.219-1.369 1.368zm6.491-16.167h5.806v1.935h-5.806v-1.935zm0 13.548h5.806v1.935h-5.806v-1.935zm0-3.871h5.806v1.935h-5.806v-1.935zM3.871 19.355h25.161v9.677H3.871v-9.677zm1.936 7.742h21.29V21.29H5.807v5.807z"
  />
</svg>
