
<svg xmlns="http://www.w3.org/2000/svg">
  <path
    fill=""
    fill-rule="evenodd"
    d="M55.466 56.129C54.376 58.414 52.05 60 49.355 60H38.71a5.636 5.636 0 0 1-5.068-3.132l-.306-.613A3.708 3.708 0 0 0 30 54.194a3.71 3.71 0 0 0-3.337 2.061l-.306.613A5.634 5.634 0 0 1 21.29 60H10.645c-2.695 0-5.021-1.586-6.111-3.871H0V42.58h4.534c1.09-2.284 3.416-3.87 6.111-3.87h38.71c2.695 0 5.021 1.586 6.111 3.87H60v13.549h-4.534zM1.936 44.516v1.936h1.935v-.968c0-.329.032-.651.077-.968H1.936zm1.935 8.71v-4.839H1.936v5.807h2.012a6.882 6.882 0 0 1-.077-.968zm50.322-7.742a4.844 4.844 0 0 0-4.838-4.839h-38.71a4.844 4.844 0 0 0-4.838 4.839v7.742a4.844 4.844 0 0 0 4.838 4.839H21.29c1.422 0 2.7-.79 3.337-2.063l.306-.612A5.635 5.635 0 0 1 30 52.258c2.159 0 4.101 1.2 5.068 3.132l.306.612a3.708 3.708 0 0 0 3.336 2.063h10.645a4.844 4.844 0 0 0 4.838-4.839v-7.742zm3.871-.968h-2.012c.045.317.077.639.077.968v.968h1.935v-1.936zm0 3.871h-1.935v4.839c0 .329-.032.65-.077.968h2.012v-5.807zM27.097 42.58h1.935v1.936h-1.935V42.58zm-17.42 2.904v6.774H7.742v-6.774a2.907 2.907 0 0 1 2.903-2.904h14.516v1.936H10.645a.97.97 0 0 0-.968.968zm46.452-8.71H3.871A3.875 3.875 0 0 1 0 32.903c0-1.434.793-2.674 1.954-3.342C2.146 17.188 10.4 6.435 22.258 3.04v-.137A2.907 2.907 0 0 1 25.161 0h9.678c1.6 0 2.903 1.302 2.903 2.903v.137C49.6 6.435 57.854 17.188 58.046 29.561c1.161.668 1.954 1.908 1.954 3.342a3.875 3.875 0 0 1-3.871 3.871zm0-5.806h-1.936v-1.936h1.895A26.092 26.092 0 0 0 41.613 6.606v16.62h-1.936V5.743a27.159 27.159 0 0 0-1.935-.683v22.037h-1.935V2.903a.97.97 0 0 0-.968-.968h-9.678a.97.97 0 0 0-.968.968v24.194h-1.935V5.06c-.658.205-1.302.432-1.935.683v17.483h-1.936V6.606A26.092 26.092 0 0 0 3.912 29.032h48.346v1.936H3.871a1.937 1.937 0 0 0-1.935 1.935c0 1.067.868 1.936 1.935 1.936h52.258a1.938 1.938 0 0 0 1.935-1.936 1.937 1.937 0 0 0-1.935-1.935zm-16.452-5.807h1.936v1.936h-1.936v-1.936zm-21.29 0h1.936v1.936h-1.936v-1.936z"
  />
</svg>
