
<svg xmlns="http://www.w3.org/2000/svg">
  <path
    fill=""
    fill-rule="evenodd"
    d="M60 58.078V60H0v-1.922h1.935V7.597L0 6.861V0l34.839 13.223v6.862l-1.936-.735v1.778L60 31.479v6.863l-1.936-.74v20.476H60zM9.677 54.235h15.484v1.923H9.677v1.92h19.355v-1.92h-1.935v-1.923h1.935v-1.921H9.677v1.921zm0-3.842h19.355v-1.921H9.677v1.921zm0-7.686h1.936v1.921H9.677v1.922h19.355v-1.922H13.548v-1.921h15.484v-1.921H9.677v1.921zm0-3.843h19.355v-1.921H9.677v1.921zm23.226-24.317L1.935 2.792v2.747l30.968 11.753v-2.745zM30.968 27.25v-8.634L3.871 8.331v49.747h3.871V36.943H5.806v-1.922h27.097v1.922h-1.935v21.135h25.161V36.863L30.968 27.25zm27.096 5.549l-25.161-9.613v2.745l25.161 9.613v-2.745zm-23.225 6.065h19.354v13.45H34.839v-13.45zm10.645 11.529h6.774V46.55h-6.774v3.843zm0-5.765h6.774v-3.842h-6.774v3.842zm-8.71 5.765h6.774V46.55h-6.774v3.843zm0-5.765h6.774v-3.842h-6.774v3.842zM9.677 18.689h15.484v13.45H9.677v-13.45zm8.71 11.529h4.839v-3.843h-4.839v3.843zm0-5.765h4.839V20.61h-4.839v3.843zm-6.774 5.765h4.839v-3.843h-4.839v3.843zm0-5.765h4.839V20.61h-4.839v3.843z"
  />
</svg>
