
<svg xmlns="http://www.w3.org/2000/svg">
  <path
    fill=""
    fill-rule="evenodd"
    d="M58.071 59.999V46.451h1.93v13.548h-1.93zm0-17.419h1.93v1.936h-1.93V42.58zm-1.498-20.908l1.218 2.441-4.623 4.637-2.436-1.221c-.649.334-1.333.616-2.039.844l-.863 2.594h-3.268v-1.935h1.878l.744-2.233.493-.138a11.538 11.538 0 0 0 2.566-1.064l.447-.252 2.097 1.051 2.655-2.663-1.049-2.104.253-.448a11.53 11.53 0 0 0 1.058-2.573l.138-.497 2.229-.744V13.6l-2.229-.744-.138-.496a11.557 11.557 0 0 0-1.058-2.574l1.68-.95c.444.788.808 1.627 1.088 2.505l2.587.865v6.556l-2.587.864c-.226.71-.507 1.394-.841 2.046zM52.786 4.573l-2.097 1.052-.447-.253a11.586 11.586 0 0 0-2.566-1.064l-.493-.138-.743-2.236h-1.878V0h3.268l.862 2.596c.706.227 1.39.51 2.039.843l2.436-1.221 4.13 4.143-1.364 1.369-3.147-3.157zm-8.224 1.233c5.321 0 9.65 4.341 9.65 9.677 0 5.336-4.329 9.678-9.65 9.678v-1.935c4.257 0 7.72-3.474 7.72-7.743s-3.463-7.741-7.72-7.741V5.806zm0 5.806V9.677c3.193 0 5.79 2.604 5.79 5.806s-2.597 5.807-5.79 5.807v-1.936a3.87 3.87 0 0 0 3.86-3.871 3.87 3.87 0 0 0-3.86-3.871zm5.79 18.387h1.93v1.936h-1.93v-1.936zm1.93 12.581h-1.93v-8.709h1.93v8.709zm-1.954 4.62l2.127 12.799H0L2.128 47.2a10.611 10.611 0 0 1 7.113-8.348l8.303-2.775v-1.239h1.93v1.816l1.439 5.778 3.898-4.691h2.834l3.897 4.691 1.441-5.778v-1.816h1.93v1.239l8.302 2.775a10.608 10.608 0 0 1 7.113 8.348zm-7.724-6.513l-7.973-2.665-2.138 8.577-5.752-6.922h-1.026l-5.751 6.922-2.139-8.577-7.973 2.665a8.685 8.685 0 0 0-5.82 6.831L2.279 58.064h6.672l.878-8.807 1.92.193-.859 8.613h30.676l-.859-8.613 1.92-.193.879 8.807h6.671l-1.752-10.546a8.69 8.69 0 0 0-5.821-6.831zm-2.867-14.558h-1.441c-.504 1.693-1.388 3.238-2.632 4.486l-3.763 3.773a4.79 4.79 0 0 1-3.411 1.418h-4.523a4.79 4.79 0 0 1-3.411-1.418l-3.763-3.773c-1.244-1.248-2.128-2.793-2.632-4.486h-1.442a2.903 2.903 0 0 1-2.895-2.903v-7.743c0-1.312.878-2.412 2.073-2.77C12.791 5.527 18.934 0 26.228 0c7.295 0 13.437 5.526 14.332 12.713a2.897 2.897 0 0 1 2.072 2.77v7.743c0 1.6-1.299 2.903-2.895 2.903zm-21.581 3.118l3.764 3.773a2.907 2.907 0 0 0 2.046.851h4.523a2.91 2.91 0 0 0 2.047-.851l3.763-3.773a8.664 8.664 0 0 0 1.989-3.118h-20.12a8.649 8.649 0 0 0 1.988 3.118zm8.072-27.313c-6.195 0-11.437 4.6-12.374 10.646h24.749c-.936-6.046-6.18-10.646-12.375-10.646zm14.474 13.549a.968.968 0 0 0-.965-.968h-.965v3.872h-1.929v-3.872H15.614v3.872h-1.93v-3.872h-.965a.968.968 0 0 0-.965.968v7.743c0 .533.433.967.965.967h.965v-3.871h1.93v3.871h21.229v-3.871h1.929v3.871h.965a.967.967 0 0 0 .965-.967v-7.743zm-23.158.968h17.369v5.806H17.544v-5.806zm1.93 3.871h13.509v-1.935H19.474v1.935zm36.668 16.452h-1.93v-1.936h1.93v1.936zm0 15.484h-1.93V38.709h1.93v13.549z"
  />
</svg>
