
<svg xmlns="http://www.w3.org/2000/svg">
  <path
    fill=""
    fill-rule="evenodd"
    d="M46.984 1.835L47.85.104c4.038 2.019 10.062 8.044 12.078 13.087l-1.797.719c-1.83-4.576-7.495-10.249-11.147-12.075zm13.014 28.166C59.998 46.542 46.541 60 29.999 60 13.457 60 0 46.542 0 30.001 0 13.461 13.457.002 29.999.002c16.542 0 29.999 13.459 29.999 29.999zM29.999 1.938c-15.474 0-28.064 12.589-28.064 28.063 0 15.475 12.59 28.064 28.064 28.064 15.473 0 28.063-12.589 28.063-28.064 0-15.474-12.59-28.063-28.063-28.063zm22.257 28.063c0 12.273-9.984 22.258-22.257 22.258-12.274 0-22.257-9.985-22.257-22.258 0-1.222.103-2.421.294-3.59l-.004-.004.005-.004C9.762 15.836 18.951 7.744 29.999 7.744c11.047 0 20.236 8.092 21.963 18.659a.018.018 0 0 1 .005.004l-.004.004c.189 1.169.293 2.368.293 3.59zm-3.183 6.943c-1.352-1.191-4.95-4.04-8.429-4.04-3.528 0-5.807 2.66-5.807 6.774 0 3.945 1.927 7.449 2.984 9.076a20.418 20.418 0 0 0 11.252-11.81zM22.175 48.752c1.056-1.631 2.985-5.142 2.985-9.074 0-4.114-2.279-6.774-5.806-6.774-3.49 0-7.081 2.848-8.431 4.038 1.947 5.328 6.042 9.628 11.252 11.81zm7.824-39.073c-9.205 0-16.989 6.157-19.479 14.566 5.478-4.26 12.67-6.824 19.479-6.824 6.808 0 14.001 2.564 19.479 6.823-2.49-8.408-10.274-14.565-19.479-14.565zm20.126 17.659c-5.293-4.934-12.936-7.982-20.126-7.982-7.189 0-14.832 3.048-20.126 7.982a20.156 20.156 0 0 0-.196 2.663c0 1.701.233 3.345.629 4.925 1.847-1.514 5.392-3.957 9.048-3.957 4.558 0 7.742 3.581 7.742 8.709 0 4.164-1.839 7.805-3.049 9.752a20.25 20.25 0 0 0 5.952.893 20.25 20.25 0 0 0 5.952-.893c-1.21-1.947-3.049-5.588-3.049-9.752 0-5.128 3.184-8.709 7.742-8.709 3.656 0 7.201 2.443 9.048 3.957.395-1.58.629-3.224.629-4.925 0-.905-.081-1.79-.196-2.663zM36.773 26.13h1.935v1.936h-1.935V26.13zm-6.774 5.807a4.845 4.845 0 0 1-4.839-4.839 4.844 4.844 0 0 1 4.839-4.838 4.843 4.843 0 0 1 4.838 4.838 4.844 4.844 0 0 1-4.838 4.839zm0-7.742a2.907 2.907 0 0 0-2.903 2.903 2.906 2.906 0 0 0 2.903 2.903c1.6 0 2.903-1.302 2.903-2.903 0-1.6-1.303-2.903-2.903-2.903zm-8.71 1.935h1.936v1.936h-1.936V26.13zm7.742 29.999h-1.935v-1.935h1.935v1.935zm3.871 0h-1.936v-1.935h1.936v1.935zm-19.888 2.037l-.866 1.731C8.11 57.879 2.086 51.853.07 46.812l1.797-.72c1.83 4.576 7.495 10.249 11.147 12.074z"
  />
</svg>
