
<svg xmlns="http://www.w3.org/2000/svg">
  <path
    fill=""
    fill-rule="evenodd"
    d="M58.118 8.547a2.287 2.287 0 0 0-1.021 1.907v4.062h-1.936v-4.062c0-1.417.704-2.731 1.883-3.517a2.288 2.288 0 0 0 1.02-1.907V0H60v5.03a4.218 4.218 0 0 1-1.882 3.517zm-5.807 0a2.29 2.29 0 0 0-1.021 1.907v4.062h-1.935v-4.062c0-1.417.703-2.731 1.882-3.517a2.287 2.287 0 0 0 1.021-1.907V0h1.935v5.03a4.216 4.216 0 0 1-1.882 3.517zm-5.806 0a2.287 2.287 0 0 0-1.021 1.907v4.062h-1.936v-4.062c0-1.417.704-2.731 1.883-3.517a2.29 2.29 0 0 0 1.021-1.907V0h1.935v5.03a4.216 4.216 0 0 1-1.882 3.517zm3.818 7.905c6.06 0 9.677 3.979 9.677 10.645 0 5.195-3.597 9.396-10.403 12.147-2.077.839-4.459 1.53-7.016 2.067v3.205a4.845 4.845 0 0 1-4.839 4.839h-1.935a.969.969 0 0 0-.968.968V60h-1.936v-9.677a2.907 2.907 0 0 1 2.904-2.903h1.935a2.907 2.907 0 0 0 2.903-2.904v-2.829A63.332 63.332 0 0 1 30 42.58c-3.644 0-7.271-.312-10.645-.893v2.829a2.907 2.907 0 0 0 2.903 2.904h1.935a2.907 2.907 0 0 1 2.904 2.903V60h-1.936v-9.677a.969.969 0 0 0-.968-.968h-1.935a4.845 4.845 0 0 1-4.839-4.839v-3.205c-2.557-.536-4.939-1.227-7.016-2.067C3.597 36.493 0 32.292 0 27.097c0-6.666 3.617-10.645 9.677-10.645 2.097 0 3.976.8 6.153 1.728.512.218 1.043.439 1.589.662v-5.693l2.904-2.903 2.903 2.903v7.488c1.25.256 2.53.435 3.871.538v-8.026L30 10.246l2.903 2.903v8.026a31.27 31.27 0 0 0 3.871-.539v-7.488l2.903-2.904 2.904 2.904v5.693c.547-.223 1.078-.444 1.591-.663 2.176-.926 4.055-1.726 6.151-1.726zm-19.355-2.503L30 12.981l-.968.968v15.083h1.936V13.949zm9.677 0l-.968-.968-.967.968v15.083h1.935V13.949zm-3.871 17.019v-8.356c-1.252.24-2.535.404-3.871.503v7.853h-5.806v-7.854a33.905 33.905 0 0 1-3.871-.502v2.549H21.29V13.949l-.967-.968-.968.968v15.083h1.935v-1.935h1.936v3.871h-5.807v-10.05a76.164 76.164 0 0 1-2.347-.958c-2.064-.879-3.694-1.573-5.395-1.573-4.92 0-7.741 3.175-7.741 8.71 0 7.858 10.366 12.103 21.727 13.236l.183-.457a18.3 18.3 0 0 0 1.315-6.829v-.144h1.936v.144c0 2.563-.481 5.069-1.42 7.45a65.26 65.26 0 0 0 3.671.141l.305-.762a18.3 18.3 0 0 0 1.315-6.829v-.144h1.935v.144c0 2.597-.489 5.137-1.454 7.547l-.014.033a63.385 63.385 0 0 0 3.8-.196l.223-.555c.421-1.05.746-2.156.968-3.288l1.899.372a20.28 20.28 0 0 1-.939 3.257c10.942-1.285 20.678-5.505 20.678-13.12 0-5.535-2.821-8.71-7.741-8.71-1.701 0-3.33.694-5.394 1.572-.705.301-1.505.632-2.348.959v10.05h-5.807zm-.081 3.78c.054-.58.081-1.153.081-1.701v-.144h1.936v.144c0 .608-.03 1.242-.09 1.881l-1.927-.18z"
  />
</svg>
