
<svg xmlns="http://www.w3.org/2000/svg">
  <path
    fill=""
    fill-rule="evenodd"
    d="M59.998 29.033L46.542 42.672c.801 1.416.607 3.256-.585 4.464a3.617 3.617 0 0 1-2.754 1.079 3.725 3.725 0 0 1-1.065 2.791 3.613 3.613 0 0 1-2.754 1.08 3.732 3.732 0 0 1-1.065 2.792 3.62 3.62 0 0 1-3.632.929l-.054.059-2.978 3.018a3.717 3.717 0 0 1-2.661 1.117 3.71 3.71 0 0 1-2.66-1.117 3.82 3.82 0 0 1-1.085-3.056 3.619 3.619 0 0 1-3.556-.95 3.724 3.724 0 0 1-1.065-2.792 3.613 3.613 0 0 1-2.754-1.08 3.717 3.717 0 0 1-1.065-2.791 3.616 3.616 0 0 1-2.754-1.079 3.744 3.744 0 0 1 0-5.24l.28-.283-3.819-3.871-1.365 1.357L0 30.001l.409-.407V.001h6.117l21.026 20.805-1.214 1.207 1.028 1.041 15.467-6.456 2.449-2.482.818.829L56.237.001h3.366v26.53l-1.037 1.05 1.432 1.452zM27.685 57.516a1.837 1.837 0 0 0 2.62 0l2.978-3.019a1.9 1.9 0 0 0 0-2.656 1.835 1.835 0 0 0-2.62 0l-2.978 3.018a1.899 1.899 0 0 0 0 2.657zm-4.642-4.006c.681.69 1.788.69 2.469 0l2.864-2.903a1.789 1.789 0 0 0 0-2.503 1.729 1.729 0 0 0-2.469 0l-2.864 2.903a1.789 1.789 0 0 0 0 2.503zm-3.819-3.87a1.73 1.73 0 0 0 2.462.005l.007-.006 2.864-2.904.006-.006a1.789 1.789 0 0 0-.006-2.496 1.729 1.729 0 0 0-2.469 0l-2.864 2.904a1.789 1.789 0 0 0 0 2.503zm-3.819-3.872a1.73 1.73 0 0 0 2.462.006l.007-.007 2.864-2.903.006-.006a1.788 1.788 0 0 0-.006-2.496 1.729 1.729 0 0 0-2.469 0l-2.864 2.904a1.787 1.787 0 0 0 0 2.502zm2.978-31.331L6.392 26.358l-1.337-1.381 11.961-11.892L5.749 1.936H2.318v25.761l1.297-1.29 1.336 1.382-2.224 2.212 6.424 6.386 15.671-15.579-6.439-6.371zm6.591 8.931L11.879 36.387l3.806 3.858 1.234-1.252a3.625 3.625 0 0 1 5.169 0 3.721 3.721 0 0 1 1.065 2.792 3.618 3.618 0 0 1 2.754 1.079 3.721 3.721 0 0 1 1.065 2.792 3.615 3.615 0 0 1 2.754 1.079 3.725 3.725 0 0 1 1.062 2.84c1.313-.418 2.841-.12 3.844.897a3.814 3.814 0 0 1 1.102 2.696c0 .291-.033.577-.095.854.478.026.965-.144 1.33-.513a1.789 1.789 0 0 0 0-2.503l-7.637-7.74-.956-.969 1.35-1.368.956.968 7.637 7.742c.681.69 1.788.69 2.469 0a1.789 1.789 0 0 0 0-2.503l-7.637-7.741-.956-.969 1.35-1.369.956.969 7.637 7.741c.681.69 1.788.69 2.469 0a1.787 1.787 0 0 0 0-2.502L32.474 30.968a63.939 63.939 0 0 0-1.635 4.846 4.28 4.28 0 0 1-4.088 3.065c-.385 0-.776-.054-1.164-.165a4.3 4.3 0 0 1-2.646-2.229 4.393 4.393 0 0 1-.165-3.483l3.252-8.566-1.054-1.068zm2.91 1.562l-3.325 8.767a2.389 2.389 0 0 0 .091 1.924 2.34 2.34 0 0 0 1.461 1.231 2.353 2.353 0 0 0 2.901-1.595c1.818-6.114 3.58-9.782 5.238-10.901l.372.566 4.7-4.765-11.438 4.773zm17.398-8.077l-11.97 12.133-.029.063 11.999 12.164 12.016-12.18-12.016-12.18zM57.694 1.936h-.453l-9.768 14.401 9.743 9.876.478-.484V1.936zM47.265 33.548l.599.607-1.351 1.369-.599-.608a2.728 2.728 0 0 1-3.854-.038l1.351-1.368a.84.84 0 0 0 1.196 0l1.272-1.29a.866.866 0 0 0 0-1.212.834.834 0 0 0-1.195-.001l-1.273 1.291a2.731 2.731 0 0 1-3.896 0 2.822 2.822 0 0 1-.036-3.909l-.601-.61 1.35-1.368.601.609a2.73 2.73 0 0 1 3.855.038l-1.35 1.368a.838.838 0 0 0-1.196 0l-1.273 1.29a.868.868 0 0 0 0 1.212.837.837 0 0 0 1.195 0l1.274-1.29a2.731 2.731 0 0 1 3.896 0 2.823 2.823 0 0 1 .035 3.91zm-29.353-15.16c1.6 0 2.901 1.303 2.901 2.903a2.905 2.905 0 0 1-2.901 2.903 2.905 2.905 0 0 1-2.901-2.903c0-1.6 1.301-2.903 2.901-2.903zm0 3.871a.982.982 0 0 0 .992-.968.982.982 0 0 0-.992-.968.982.982 0 0 0-.992.968c0 .533.445.968.992.968z"
  />
</svg>
